<svg width="24" height="24" viewBox="0 0 24 24" fill="none" xmlns="http://www.w3.org/2000/svg">
<defs><linearGradient id="pufferone-bg" x1="0" y1="0" x2="24" y2="24" gradientUnits="userSpaceOnUse"><stop offset="0" stop-color="#FC72FF"/><stop offset="0.5" stop-color="#A78BFA"/><stop offset="1" stop-color="#7DD3FC"/></linearGradient></defs>
<g clip-path="url(#clip0_582_2561)">
<circle cx="12" cy="12" r="12" fill="url(#pufferone-bg)"/>
<path fill-rule="evenodd" clip-rule="evenodd" d="M10.2229 4.88645C10.1749 4.603 10.574 4.48843 10.6836 4.75417L10.8974 5.27234C10.9041 5.28846 10.9092 5.30479 10.9128 5.32116C11.4256 5.19753 11.9422 5.13526 12.4537 5.13044C12.4532 5.11357 12.4542 5.0964 12.4567 5.07903L12.5383 4.52583C12.5802 4.24142 12.9951 4.25578 13.0174 4.54241L13.0605 5.09993C13.0618 5.11749 13.0616 5.13475 13.0599 5.1516C13.5802 5.19288 14.0914 5.29317 14.5841 5.44823C14.5888 5.43203 14.595 5.41599 14.6028 5.40027L14.8518 4.89837C14.9796 4.64084 15.3697 4.78272 15.3023 5.06217L15.1708 5.60681C15.1667 5.62386 15.1611 5.64014 15.1544 5.65559C15.633 5.85378 16.0892 6.1055 16.5133 6.40644C16.5226 6.39299 16.5332 6.38012 16.545 6.36799L16.937 5.96759C17.1381 5.76215 17.4653 6.01766 17.3148 6.26258L17.0214 6.7399C17.0127 6.75408 17.003 6.76721 16.9925 6.77926C17.4233 7.14612 17.812 7.56878 18.1461 8.04177C18.1453 7.99621 18.145 7.95096 18.1448 7.9065V7.90628L18.1447 7.8984C18.1437 7.67158 18.3488 7.49723 18.5812 7.46474C18.6923 7.45 18.8052 7.47253 18.902 7.52881C18.999 7.58508 19.0745 7.67192 19.1168 7.7757C19.249 8.11221 19.2713 8.48196 19.1806 8.83195C19.1731 8.86348 19.1644 8.89498 19.1545 8.93067L19.1545 8.93087L19.1543 8.93159C19.1506 8.94497 19.1467 8.95894 19.1427 8.97373C19.4824 9.16522 19.7488 9.46426 19.8999 9.8238C20.0213 10.1133 19.9061 10.409 19.6386 10.5264C19.5008 10.5856 19.3658 10.57 19.2422 10.5053C19.3515 10.9865 19.407 11.4705 19.412 11.9502C19.4263 11.9501 19.4409 11.9512 19.4556 11.9533L20.0087 12.0349C20.2931 12.0768 20.2788 12.4918 19.9922 12.5139L19.4347 12.5571C19.42 12.5582 19.4056 12.5583 19.3914 12.5572C19.3505 13.0782 19.2505 13.5901 19.0955 14.0835C19.1086 14.0878 19.1216 14.0931 19.1344 14.0994L19.6362 14.3484C19.8937 14.4761 19.7519 14.8664 19.4724 14.7989L18.9279 14.6674C18.9141 14.6641 18.9009 14.6598 18.8881 14.6548C18.6899 15.1343 18.4379 15.5913 18.1366 16.016C18.147 16.0237 18.157 16.0323 18.1666 16.0417L18.567 16.4335C18.7724 16.6347 18.5169 16.9619 18.272 16.8114L17.7947 16.5181C17.7836 16.5112 17.7731 16.5038 17.7633 16.4958C17.4293 16.888 17.0491 17.2452 16.6268 17.5582C16.634 17.5686 16.6406 17.5794 16.6466 17.5909L16.9058 18.0863C17.039 18.341 16.6949 18.5733 16.5085 18.3544L16.1459 17.9288C16.1375 17.9189 16.1298 17.9087 16.123 17.8981C15.7662 18.1164 15.3843 18.3051 14.9794 18.4599C14.8908 18.4937 14.802 18.5256 14.7129 18.5556C14.7165 18.5674 14.7194 18.5796 14.7215 18.5921L14.8151 19.1447C14.8631 19.4282 14.4641 19.5427 14.3544 19.277L14.1406 18.7589C14.1358 18.7474 14.1319 18.7358 14.1287 18.7241C13.6148 18.8482 13.097 18.9106 12.5843 18.9154C12.5841 18.9275 12.5831 18.9398 12.5813 18.9523L12.4997 19.5053C12.4578 19.7898 12.0428 19.7754 12.0207 19.4888L11.9775 18.9314C11.9765 18.9188 11.9764 18.9063 11.977 18.894C11.4557 18.8525 10.9434 18.7517 10.4498 18.5959C10.4457 18.6077 10.4409 18.6194 10.4351 18.631L10.1862 19.1328C10.0584 19.3903 9.66821 19.2484 9.73568 18.969L9.86717 18.4245C9.87025 18.4118 9.8741 18.3994 9.87867 18.3876C9.39932 18.1886 8.94255 17.9359 8.51814 17.6338C8.51049 17.644 8.50207 17.6539 8.49287 17.6633L8.10101 18.0635C7.89992 18.269 7.57266 18.0135 7.72319 17.7686L8.0165 17.2914C8.02338 17.2802 8.03087 17.2697 8.0389 17.2598C7.6473 16.9253 7.2907 16.5447 6.97837 16.1219C6.9675 16.1297 6.95595 16.1368 6.94372 16.1432L6.44831 16.4023C6.19357 16.5356 5.96129 16.1914 6.18014 16.005L6.60574 15.6425C6.61654 15.6333 6.62778 15.6251 6.63939 15.6177C6.46843 15.3374 6.31569 15.0416 6.18335 14.7314L5.24377 15.977C5.11922 16.1421 4.87633 16.1598 4.74625 15.999C3.85583 14.8983 3.74579 13.4426 3.83307 12.5532C3.85406 12.3393 4.07795 12.2214 4.27592 12.305L5.68308 12.8986C5.64787 12.6255 5.62944 12.3525 5.62718 12.081C5.61244 12.0811 5.59748 12.08 5.58237 12.0778L5.02924 11.9963C4.74483 11.9543 4.75919 11.5394 5.04582 11.5172L5.60327 11.4741C5.6188 11.4729 5.6341 11.4729 5.64908 11.4741C5.69102 10.9536 5.79204 10.4422 5.94787 9.9494C5.93294 9.94483 5.91815 9.93898 5.90364 9.93175L5.40178 9.68277C5.14425 9.55502 5.28613 9.16481 5.56558 9.23228L6.11017 9.36378C6.1262 9.36765 6.14154 9.37277 6.15616 9.37898C6.35506 8.90046 6.60751 8.4445 6.90916 8.02078C6.89595 8.01161 6.88331 8.0012 6.87138 7.98951L6.471 7.5976C6.26556 7.39651 6.52107 7.06926 6.76599 7.21978L7.24329 7.51314C7.25749 7.52186 7.27064 7.53159 7.28272 7.54216C7.61666 7.15115 7.99666 6.79502 8.4186 6.48303C8.40851 6.46988 8.39939 6.45566 8.39141 6.44039L8.13224 5.9449C7.999 5.69016 8.34313 5.45788 8.52954 5.67673L8.89214 6.1024C8.9035 6.11574 8.91341 6.12977 8.92188 6.14432C9.27711 5.92747 9.65713 5.73986 10.0599 5.58595C10.1495 5.5517 10.2394 5.51944 10.3296 5.48916C10.3238 5.47323 10.3194 5.45654 10.3165 5.43919L10.2229 4.88645ZM6.97618 14.1412C8.14613 17.2029 11.5765 18.7364 14.638 17.5664C17.6708 16.4075 19.2041 13.0305 18.0955 9.99106C17.7278 10.2999 17.2866 10.5797 16.7735 10.7678C15.6221 11.1898 14.743 11.3736 14.0011 11.4463C13.1575 12.6063 11.7233 13.0903 11.0294 13.1899L11.1179 11.4528C10.666 11.4717 10.1805 11.5312 9.6128 11.677C8.54644 11.951 7.55318 12.3978 6.65165 12.9166C6.7146 13.3272 6.82188 13.7374 6.97618 14.1412ZM8.48867 14.2907C8.20436 14.3413 7.93287 14.1518 7.88228 13.8675C7.83168 13.5832 8.02115 13.3117 8.30545 13.2611C8.58975 13.2105 8.86125 13.4 8.91182 13.6843C8.96241 13.9686 8.77297 14.2401 8.48867 14.2907ZM10.8991 14.354C10.7136 14.387 10.5364 14.2633 10.5034 14.0778C10.4704 13.8922 10.594 13.715 10.7796 13.682C10.9651 13.649 11.1423 13.7727 11.1754 13.9582C11.2083 14.1437 11.0847 14.3209 10.8991 14.354ZM13.9601 14.2342C13.7746 14.2672 13.5974 14.1436 13.5644 13.958C13.5313 13.7724 13.655 13.5953 13.8405 13.5622C14.0261 13.5293 14.2033 13.6529 14.2363 13.8385C14.2694 14.024 14.1457 14.2012 13.9601 14.2342ZM14.5975 15.8689C14.6305 16.0545 14.8077 16.1781 14.9933 16.1452C15.1788 16.1121 15.3025 15.9349 15.2695 15.7494C15.2365 15.5638 15.0592 15.4402 14.8737 15.4732C14.6882 15.5062 14.5645 15.6834 14.5975 15.8689ZM11.0204 16.702C10.8348 16.735 10.6576 16.6114 10.6246 16.4258C10.5916 16.2402 10.7152 16.063 10.9008 16.03C11.0864 15.997 11.2635 16.1206 11.2966 16.3062C11.3296 16.4918 11.2059 16.669 11.0204 16.702ZM9.17866 15.2596C9.2117 15.4451 9.38891 15.5688 9.57448 15.5358C9.76 15.5028 9.88364 15.3256 9.85065 15.14C9.81761 14.9545 9.64046 14.8308 9.45489 14.8638C9.26932 14.8968 9.14567 15.0741 9.17866 15.2596ZM12.5107 15.3696C12.3251 15.4026 12.1479 15.2789 12.115 15.0933C12.0819 14.9078 12.2056 14.7306 12.3911 14.6976C12.5767 14.6645 12.7539 14.7882 12.7869 14.9738C12.8199 15.1593 12.6962 15.3365 12.5107 15.3696ZM15.4238 13.9736C15.4744 14.2579 15.7459 14.4474 16.0302 14.3968C16.3145 14.3462 16.5039 14.0747 16.4534 13.7904C16.4028 13.5061 16.1313 13.3166 15.847 13.3672C15.5627 13.4178 15.3732 13.6893 15.4238 13.9736ZM12.497 16.6238C12.5476 16.9082 12.8191 17.0976 13.1034 17.047C13.3877 16.9964 13.5771 16.7249 13.5266 16.4406C13.476 16.1563 13.2045 15.9669 12.9202 16.0175C12.6359 16.068 12.4464 16.3395 12.497 16.6238ZM16.4949 8.60089C16.5996 9.06066 16.3282 9.51443 15.8888 9.61448C15.4494 9.71447 15.0084 9.42282 14.9037 8.96305C14.7991 8.50328 15.0704 8.04949 15.5099 7.94948C15.9492 7.84947 16.3903 8.14111 16.4949 8.60089Z" fill="white"/>
<path d="M15.9229 9.21496C16.1208 9.16992 16.2391 8.94828 16.1871 8.71992C16.1352 8.49156 15.9326 8.34295 15.7347 8.38799C15.5368 8.43303 15.4185 8.65467 15.4705 8.88303C15.5225 9.1114 15.725 9.26001 15.9229 9.21496Z" fill="white"/>
</g>
<defs>
<clipPath id="clip0_582_2561">
<rect width="24" height="24" fill="white"/>
</clipPath>
</defs>
</svg>
