<svg width="24" height="24" viewBox="0 0 24 24" fill="none" xmlns="http://www.w3.org/2000/svg">
<rect width="24" height="24" rx="12" fill="white"/>
<g clip-path="url(#clip0_23_51)">
<path d="M7.09623 11.0802L6.96726 11.2737C5.48412 13.5951 5.80654 16.6258 7.80555 18.5604C8.90179 19.7211 10.4494 20.3014 11.997 20.3014C11.997 20.3014 11.997 20.3014 7.09623 11.0802Z" fill="#00A3FF"/>
<path d="M11.997 13.9175L7.09622 11.0802C11.997 20.3659 11.997 20.3659 11.997 20.3659C11.997 18.3669 11.997 16.0455 11.997 13.9175Z" fill="#66C8FF"/>
<path d="M16.8978 11.0802L17.0268 11.2737C18.5099 13.5951 18.1875 16.6258 16.1885 18.5604C15.0278 19.7211 13.5446 20.3014 11.997 20.3014C11.997 20.3014 11.997 20.3014 16.8978 11.0802Z" fill="#66C8FF"/>
<path d="M11.997 13.9175L16.8978 11.0802C11.997 20.3659 11.997 20.3659 11.997 20.3659C11.997 18.3669 11.997 16.0455 11.997 13.9175Z" fill="#CCEDFF"/>
<path d="M11.997 7.66248V12.4988L16.253 10.1129L11.997 7.66248Z" fill="#CCEDFF"/>
<path d="M11.997 7.66248L7.74106 10.1129L11.997 12.4988V7.66248Z" fill="#66C8FF"/>
<path d="M11.997 3.59998L7.74106 10.1129L11.997 7.66248V3.59998Z" fill="#00A3FF"/>
<path d="M11.997 7.66248L16.253 10.1129L11.997 3.59998V7.66248Z" fill="#66C8FF"/>
</g>
<defs>
<clipPath id="clip0_23_51">
<rect width="12.252" height="16.7659" fill="white" transform="translate(6 3.59998)"/>
</clipPath>
</defs>
</svg>
