<svg width="24" height="24" viewBox="0 0 24 24" fill="none" xmlns="http://www.w3.org/2000/svg">
<path d="M6.72817 23.8033C12.7606 23.8033 12.7606 23.7135 13.7835 23.4099C15.1202 23.0131 10.0095 19.4755 6.72817 19.4755C3.44688 19.4755 0.786865 20.4443 0.786865 21.6394C0.786865 22.8345 3.44701 23.8033 6.72817 23.8033Z" fill="black"/>
<path d="M20.4261 5.40179L20.7035 5.7008L20.461 6.02877C12.5935 16.6661 8.0614 21.4824 6.13846 20.8365C4.9672 20.443 3.79258 19.2597 2.61794 17.5414C2.20506 16.9375 1.81735 16.3015 1.46473 15.6686C1.22991 15.2472 1.03117 14.8628 0.927971 14.6463C0.796333 14.3701 0.740756 14.2 0.696664 13.9766C0.693974 13.9629 0.693974 13.9629 0.691417 13.9497C0.673014 13.8549 0.666647 13.8249 0.65289 13.773C0.416156 12.8808 0.295074 11.9564 0.295074 11.0165C0.295074 5.09526 5.09517 0.295166 11.0164 0.295166C12.8714 0.295166 14.6591 0.76728 16.2433 1.65352L16.2842 1.67911C17.5813 2.58217 18.961 3.82305 20.4261 5.40179ZM15.7421 2.50023C14.3089 1.70311 12.694 1.27877 11.0164 1.27877C5.6384 1.27877 1.27868 5.63849 1.27868 11.0165C1.27868 11.8711 1.38866 12.7107 1.6036 13.5208C1.62486 13.6009 1.63447 13.6462 1.65702 13.7624C1.65938 13.7746 1.65938 13.7746 1.66166 13.7861C1.69012 13.9303 1.72014 14.0222 1.81587 14.2231C1.91001 14.4206 2.09919 14.7864 2.32397 15.1899C2.66288 15.7982 3.03532 16.4091 3.42994 16.9863C4.49121 18.5387 5.54372 19.599 6.45168 19.9041C7.66267 20.3109 12.2215 15.485 19.4261 5.77333C18.1181 4.39271 16.8894 3.30166 15.7421 2.50023Z" fill="black"/>
<path d="M15.7421 2.50026C14.3089 1.70314 12.694 1.27881 11.0164 1.27881C5.6384 1.27881 1.27869 5.63853 1.27869 11.0165C1.27869 11.8711 1.38866 12.7107 1.60361 13.5208C1.62486 13.6009 1.63447 13.6462 1.65702 13.7624C1.65939 13.7746 1.65939 13.7746 1.66167 13.7862C1.69012 13.9304 1.72014 14.0223 1.81587 14.2231C1.91001 14.4206 2.0992 14.7865 2.32397 15.1899C2.66289 15.7982 3.03533 16.4091 3.42995 16.9864C4.49122 18.5388 5.54372 19.5991 6.45169 19.9041C7.66267 20.3109 12.2215 15.485 19.4261 5.77337C18.1181 4.39274 16.8894 3.30169 15.7421 2.50026Z" fill="#EC1C79"/>
<path d="M12.9836 23.705C7.06239 23.705 2.2623 18.9049 2.2623 12.9836C2.2623 7.06242 7.06239 2.26233 12.9836 2.26233C18.9048 2.26233 23.7049 7.06242 23.7049 12.9836C23.7049 18.9049 18.9048 23.705 12.9836 23.705ZM12.9836 22.7213C18.3616 22.7213 22.7213 18.3616 22.7213 12.9836C22.7213 7.60565 18.3616 3.24594 12.9836 3.24594C7.60562 3.24594 3.24591 7.60565 3.24591 12.9836C3.24591 18.3616 7.60562 22.7213 12.9836 22.7213Z" fill="black"/>
<path d="M12.9836 22.7214C18.3616 22.7214 22.7213 18.3617 22.7213 12.9837C22.7213 7.60569 18.3616 3.24597 12.9836 3.24597C7.6056 3.24597 3.24588 7.60569 3.24588 12.9837C3.24588 18.3617 7.6056 22.7214 12.9836 22.7214Z" fill="white"/>
<path fill-rule="evenodd" clip-rule="evenodd" d="M5.69941 14.9784L4.41049 11.0951H5.53967L6.21167 13.3259L6.95528 11.0841H7.87515L8.61875 13.3259L9.29075 11.0951H10.3979L9.10898 14.9784H8.1781L7.40144 12.7586L6.63029 14.9784H5.69941ZM10.822 14.9509V11.0951H13.9231V12.004H11.8796V12.5878H13.7304V13.4306H11.8796V14.042H13.9507V14.9509H10.822ZM15.4379 14.9509V12.0315H14.2812V11.0951H17.6632V12.0315H16.5065V14.9509H15.4379ZM18.1314 14.9509V11.0951H19.2V12.5383H20.5715V11.0951H21.6401V14.9509H20.5715V13.4857H19.2V14.9509H18.1314Z" fill="black"/>
<path d="M0.934001 9.93533C0.661908 9.79929 0.55162 9.46842 0.687667 9.19633C0.823713 8.92424 1.15458 8.81395 1.42667 8.95L3.00044 9.73688C3.27253 9.87293 3.38282 10.2038 3.24677 10.4759C3.11073 10.748 2.77986 10.8583 2.50777 10.7222L0.934001 9.93533Z" fill="black"/>
<path d="M0.752786 12.5449C0.476573 12.4174 0.355998 12.0901 0.483473 11.8139C0.610949 11.5377 0.938202 11.4171 1.21441 11.5446L2.78818 12.2709C3.0644 12.3984 3.18497 12.7256 3.0575 13.0019C2.93002 13.2781 2.60277 13.3986 2.32656 13.2712L0.752786 12.5449Z" fill="black"/>
</svg>
